<?xml version="1.0" standalone="no"?>
<!DOCTYPE svg PUBLIC "-//W3C//DTD SVG 20010904//EN"
 "http://www.w3.org/TR/2001/REC-SVG-20010904/DTD/svg10.dtd">
<svg version="1.0" xmlns="http://www.w3.org/2000/svg"
 width="570.000000pt" height="88.000000pt" viewBox="0 0 570.000000 88.000000"
 preserveAspectRatio="xMidYMid meet">

<g transform="translate(0.000000,88.000000) scale(0.100000,-0.100000)"
fill="#000000" stroke="none">
<path d="M1700 811 c-74 -24 -119 -63 -145 -123 -12 -30 -15 -81 -15 -250 0
-195 2 -215 21 -255 75 -155 299 -153 375 2 25 53 25 54 22 272 l-3 220 -27
41 c-48 71 -157 116 -228 93z m126 -22 c38 -12 88 -63 108 -111 23 -54 23
-422 1 -476 -32 -76 -102 -122 -185 -122 -65 0 -108 18 -147 63 -50 57 -55 89
-51 323 l3 211 27 39 c57 82 138 106 244 73z"/>
<path d="M1809 557 c-1 -27 -2 -28 -7 -10 -4 14 -12 20 -19 15 -18 -11 18 -47
47 -47 18 0 26 6 28 23 2 12 -1 22 -7 22 -6 0 -10 -5 -8 -11 1 -6 -3 -13 -10
-16 -7 -3 -9 3 -6 16 3 12 10 21 16 21 15 0 -1 13 -18 16 -10 2 -15 -8 -16
-29z"/>
<path d="M1700 540 c0 -3 4 -11 9 -19 7 -11 11 -10 20 7 10 18 8 21 -9 19 -11
-1 -20 -4 -20 -7z"/>
<path d="M1732 510 c-15 -24 -15 -30 -2 -30 6 0 10 7 10 15 0 9 6 12 16 8 13
-5 13 -7 2 -14 -7 -5 -8 -9 -2 -9 18 0 24 12 13 31 -12 24 -21 24 -37 -1z"/>
<path d="M1682 504 c4 -23 27 -31 24 -8 -2 10 -8 20 -15 22 -8 3 -12 -3 -9
-14z"/>
<path d="M1805 457 c-6 -19 -8 -20 -12 -4 -5 18 -18 23 -27 8 -11 -17 4 -36
43 -58 44 -25 56 -16 35 26 -7 14 -11 28 -9 32 3 4 -1 9 -9 12 -8 3 -17 -3
-21 -16z"/>
<path d="M1705 460 c3 -5 8 -10 11 -10 2 0 4 5 4 10 0 6 -5 10 -11 10 -5 0 -7
-4 -4 -10z"/>
<path d="M1695 425 c16 -13 38 -23 50 -21 11 2 25 -4 32 -13 7 -9 13 -11 13
-5 0 17 -47 57 -62 52 -7 -3 -24 -1 -38 3 -24 9 -24 8 5 -16z"/>
<path d="M1613 419 c-1 -10 2 -19 8 -19 11 0 12 27 1 34 -4 2 -9 -4 -9 -15z"/>
<path d="M1687 379 c7 -7 15 -10 18 -7 3 3 -2 9 -12 12 -14 6 -15 5 -6 -5z"/>
<path d="M1728 378 c9 -9 15 -9 24 0 9 9 7 12 -12 12 -19 0 -21 -3 -12 -12z"/>
<path d="M1710 350 c0 -5 5 -10 10 -10 6 0 10 5 10 10 0 6 -4 10 -10 10 -5 0
-10 -4 -10 -10z"/>
<path d="M1762 344 c2 -10 -3 -19 -9 -21 -7 -3 -13 0 -13 5 0 6 -9 8 -20 5
-15 -4 -19 -13 -18 -39 1 -19 5 -34 10 -34 5 0 8 -8 7 -17 -3 -38 1 -43 41
-43 22 0 40 4 40 9 0 5 -12 8 -26 5 -25 -5 -26 -4 -8 13 17 17 17 18 -10 21
-20 3 -26 8 -22 19 3 8 6 22 6 30 0 11 6 14 21 10 25 -7 51 2 43 14 -3 5 -1 9
4 9 5 0 9 7 9 15 0 13 -3 13 -19 -2 -17 -15 -18 -15 -18 0 0 10 -5 17 -10 17
-6 0 -10 -7 -8 -16z"/>
<path d="M2600 623 c8 -3 21 -10 28 -16 8 -7 12 -5 12 7 0 11 -8 16 -27 15
-16 0 -22 -3 -13 -6z"/>
<path d="M2670 612 c0 -12 3 -13 12 -4 7 7 25 12 40 12 l28 0 0 -99 c0 -70 -4
-101 -12 -104 -7 -2 5 -4 27 -4 22 0 34 2 28 4 -9 3 -13 34 -13 104 0 93 1 99
21 99 11 0 29 -5 40 -10 15 -8 19 -7 19 4 0 12 -19 14 -95 15 -81 0 -95 -3
-95 -17z"/>
<path d="M2131 589 c-49 -49 -39 -128 21 -160 l21 -12 -21 28 c-30 37 -30 112
-1 149 28 35 17 33 -20 -5z"/>
<path d="M2370 520 c0 -82 3 -100 15 -100 12 0 15 18 15 100 0 82 -3 100 -15
100 -12 0 -15 -18 -15 -100z"/>
<path d="M2500 520 c0 -82 3 -100 15 -100 12 0 15 18 15 100 0 82 -3 100 -15
100 -12 0 -15 -18 -15 -100z"/>
<path d="M2931 589 c-43 -43 -43 -96 0 -141 l30 -33 -15 32 c-23 46 -21 115 5
147 28 35 17 33 -20 -5z"/>
<path d="M3180 520 c0 -82 3 -100 15 -100 12 0 15 18 15 100 0 82 -3 100 -15
100 -12 0 -15 -18 -15 -100z"/>
<path d="M3295 579 c0 -40 0 -40 17 -19 13 17 15 27 8 41 -17 30 -25 22 -25
-22z"/>
<path d="M3420 520 c0 -82 3 -100 15 -100 12 0 15 18 15 100 0 82 -3 100 -15
100 -12 0 -15 -18 -15 -100z"/>
<path d="M3597 606 c-3 -8 -3 -18 2 -20 4 -3 19 -41 32 -86 14 -48 29 -80 37
-80 8 0 11 6 9 13 -3 6 -18 48 -32 92 -30 88 -39 104 -48 81z"/>
<path d="M2260 606 c0 -2 7 -9 15 -16 12 -10 15 -10 15 4 0 9 -7 16 -15 16 -8
0 -15 -2 -15 -4z"/>
<path d="M3066 595 c4 -11 9 -42 12 -69 3 -38 0 -54 -18 -78 l-22 -30 25 16
c52 34 62 108 21 153 -19 21 -24 23 -18 8z"/>
<path d="M2575 531 c-3 -5 -1 -12 5 -16 5 -3 10 1 10 9 0 18 -6 21 -15 7z"/>
<path d="M3293 487 c20 -64 27 -78 36 -72 13 7 -16 92 -34 98 -10 4 -11 -1 -2
-26z"/>
<path d="M2268 480 c2 -17 -2 -37 -9 -47 -13 -15 -12 -15 7 -5 28 15 39 82 14
82 -13 0 -15 -7 -12 -30z"/>
<path d="M3845 440 c-9 -16 -13 -30 -11 -30 3 0 12 14 21 30 9 17 13 30 11 30
-3 0 -12 -13 -21 -30z"/>
<path d="M3760 430 c0 -15 5 -20 18 -18 9 2 17 10 17 18 0 8 -8 16 -17 18 -13
2 -18 -3 -18 -18z"/>
<path d="M3515 420 c-3 -6 1 -7 9 -4 18 7 21 14 7 14 -6 0 -13 -4 -16 -10z"/>
<path d="M2440 268 c0 -21 2 -38 4 -38 9 0 12 50 5 62 -6 8 -9 -1 -9 -24z"/>
<path d="M2488 288 c-3 -7 -1 -24 3 -38 6 -22 7 -20 8 13 1 38 -3 47 -11 25z"/>
<path d="M2540 286 c-27 -33 18 -72 48 -42 13 13 14 20 6 34 -15 23 -38 26
-54 8z m48 -19 c4 -20 -25 -34 -40 -19 -15 15 -1 44 19 40 10 -2 19 -11 21
-21z"/>
<path d="M2630 263 c0 -27 3 -34 9 -24 7 11 13 12 23 3 11 -9 14 -5 13 21 0
25 -5 33 -22 35 -20 3 -23 -1 -23 -35z m40 12 c0 -8 -7 -15 -15 -15 -8 0 -15
7 -15 15 0 8 7 15 15 15 8 0 15 -7 15 -15z"/>
<path d="M2710 265 c0 -30 3 -35 23 -34 16 1 18 2 5 6 -10 2 -18 8 -18 13 0 5
8 11 18 13 16 4 16 5 0 6 -10 0 -18 5 -18 10 0 5 8 12 18 14 13 4 11 5 -5 6
-20 1 -23 -4 -23 -34z"/>
<path d="M2817 292 c6 -4 13 -21 16 -37 l4 -30 2 32 c0 17 7 34 14 36 6 3 -1
6 -18 6 -16 0 -25 -3 -18 -7z"/>
<path d="M2892 265 c0 -22 2 -32 5 -22 2 9 11 17 18 17 7 0 16 -8 18 -17 3
-10 5 0 5 22 0 22 -2 32 -5 23 -2 -10 -11 -18 -18 -18 -7 0 -16 8 -18 18 -3 9
-5 -1 -5 -23z"/>
<path d="M2987 283 c-2 -10 -8 -25 -11 -33 -5 -11 1 -15 24 -15 21 0 29 4 25
13 -3 8 -5 17 -5 20 0 4 -4 0 -10 -8 -5 -8 -12 -11 -16 -7 -4 4 -2 13 4 19 14
14 16 28 3 28 -5 0 -11 -8 -14 -17z"/>
<path d="M3061 265 c1 -24 4 -31 6 -17 l4 22 19 -22 19 -23 0 40 c-1 32 -2 35
-8 15 l-7 -24 -17 24 -17 24 1 -39z"/>
<path d="M3200 292 c0 -4 5 -13 12 -20 6 -6 8 -15 4 -19 -4 -4 -11 -2 -15 6
-6 10 -10 9 -15 -4 -3 -9 -6 -17 -6 -18 0 -1 14 -2 30 -2 23 0 29 4 24 15 -3
8 -9 23 -11 33 -5 17 -23 24 -23 9z"/>
<path d="M3312 288 c-18 -18 -14 -46 8 -53 23 -7 40 1 40 18 0 8 -3 7 -9 -2
-11 -17 -41 -7 -41 14 0 9 10 20 23 25 13 5 16 9 7 9 -9 1 -21 -4 -28 -11z"/>
<path d="M3393 265 c0 -22 2 -30 4 -17 2 12 2 30 0 40 -3 9 -5 -1 -4 -23z"/>
<path d="M3430 263 c0 -21 4 -33 8 -27 4 6 14 14 22 17 12 4 11 6 -2 6 -10 1
-18 7 -18 15 0 8 8 17 18 19 13 4 11 5 -5 6 -20 1 -23 -4 -23 -36z"/>
<path d="M3497 292 c6 -4 13 -21 16 -37 l4 -30 2 32 c0 17 7 34 14 36 6 3 -1
6 -18 6 -16 0 -25 -3 -18 -7z"/>
</g>
</svg>
