<?xml version="1.0" encoding="utf-8"?>
<!-- Generator: Adobe Illustrator 25.0.0, SVG Export Plug-In . SVG Version: 6.00 Build 0)  -->
<svg version="1.1" id="Calque_1" xmlns="http://www.w3.org/2000/svg" xmlns:xlink="http://www.w3.org/1999/xlink" x="0px" y="0px"
	 viewBox="0 0 500 63.62" style="enable-background:new 0 0 500 63.62;" xml:space="preserve">
<style type="text/css">
	.st0{fill:#9E7C37;}
</style>
<g>
	<path class="st0" d="M409.07,45.5c1.63,0,3.02,0.57,4.17,1.72c1.15,1.15,1.73,2.55,1.73,4.2c0,1.62-0.58,3.02-1.73,4.18
		c-1.15,1.16-2.54,1.74-4.17,1.74c-1.63,0-3.02-0.58-4.17-1.74c-1.15-1.16-1.73-2.55-1.73-4.18c0-1.65,0.58-3.05,1.73-4.2
		C406.05,46.07,407.44,45.5,409.07,45.5z"/>
	<g>
		<g>
			<path class="st0" d="M420.81,59.02c-0.13-0.07-0.22-0.15-0.27-0.24c-0.05-0.08-0.07-0.2-0.07-0.35c0-0.81,0.36-2.11,1.08-3.92
				c0.72-1.81,1.71-3.79,2.95-5.93c1.25-2.15,2.62-4.12,4.12-5.92c1.14-1.39,2.07-2.08,2.78-2.08c0.32,0,0.62,0.14,0.9,0.41
				c0.28,0.27,0.42,0.6,0.42,1c0,0.39-0.18,0.93-0.53,1.6c-0.36,0.67-1.14,1.9-2.36,3.67c-1.22,1.77-3.21,4.61-5.99,8.5
				c3.56-3.21,6.21-5.49,7.96-6.86c1.74-1.37,2.97-2.05,3.68-2.05c0.66,0,1.15,0.26,1.49,0.77c0.34,0.52,0.61,1.45,0.82,2.8
				c0.06,0.28,0.13,0.67,0.22,1.18c0.11,0.62,0.19,0.95,0.22,0.98c0.07,0.11,0.23,0.17,0.48,0.17c0.69,0,1.77-0.53,3.23-1.59
				c1.46-1.06,3.64-2.88,6.55-5.47c1.01-0.92,1.77-1.58,2.28-1.98c0.51-0.4,0.86-0.65,1.07-0.75c0.21-0.09,0.43-0.14,0.67-0.14
				c0.71,0,1.24,0.3,1.59,0.89c0.35,0.59,0.52,1.52,0.52,2.8c0,0.26-0.02,0.7-0.06,1.32c-0.02,0.6-0.03,1.03-0.03,1.29
				c0,0.86,0.07,1.61,0.2,2.23c0.13,0.63,0.35,1.22,0.65,1.78c0.58,1.12,1.55,2.06,2.91,2.8c1.36,0.74,2.75,1.11,4.17,1.11
				c1.12,0,2.44-0.29,3.95-0.86c1.51-0.57,2.86-1.32,4.06-2.23c0.97-0.71,2.82-2.3,5.54-4.75c1.14-1.03,1.73-1.55,1.77-1.55
				c0.11,0,0.17,0.04,0.17,0.11c0,0.26-0.85,1.19-2.56,2.78c-1.99,1.82-3.76,3.26-5.31,4.33c-1.56,1.07-3.01,1.84-4.37,2.3
				c-1.36,0.47-2.75,0.7-4.18,0.7c-1.56,0-3.18-0.42-4.86-1.27c-1.82-0.9-3.17-2.03-4.06-3.39c-0.89-1.36-1.34-3.01-1.34-4.96
				c0-0.47,0.05-1.14,0.14-2.02c0.04-0.43,0.06-0.7,0.06-0.82c0-0.21-0.04-0.31-0.11-0.31c-0.45,0-2.2,1.23-5.26,3.68
				c-2.42,2.02-4.18,3.41-5.29,4.16c-1.11,0.75-1.95,1.12-2.53,1.12c-0.79,0-1.46-0.51-2.01-1.52c-0.55-1.01-0.85-2.25-0.89-3.71
				c0-0.47-0.05-0.7-0.14-0.7l-0.11-0.03c-0.62,0-1.83,0.7-3.63,2.09c-1.8,1.4-4.02,3.38-6.66,5.95c-0.23,0.21-0.54,0.51-0.96,0.9
				c-1.59,1.54-2.41,2.31-2.45,2.31C421.27,59.32,421.05,59.19,420.81,59.02z"/>
			<path class="st0" d="M479.17,59.08c-1.5-0.47-2.65-1.22-3.44-2.26c-0.8-1.04-1.19-2.28-1.19-3.73c0-0.73,0.08-1.48,0.22-2.25
				c0.02-0.15,0.03-0.23,0.03-0.25c0-0.07-0.18-0.15-0.53-0.22c-0.22-0.06-0.4-0.11-0.53-0.15c-0.13-0.05-0.2-0.13-0.2-0.24
				c0-0.11,0.17-0.17,0.51-0.17c0.09,0,0.41,0.04,0.96,0.11c1.52-3.39,3.28-5.87,5.27-7.44c2-1.56,3.91-2.35,5.75-2.35
				c0.86,0,1.54,0.19,2.04,0.56c0.5,0.38,0.75,0.87,0.75,1.49c0,0.94-0.51,1.93-1.52,2.98c-1.01,1.05-2.37,2-4.06,2.85
				c-1.7,0.85-3.52,1.49-5.47,1.9c-0.36,0.09-0.71,0.57-1.05,1.42c-0.35,0.85-0.52,1.76-0.52,2.71c0,1.52,0.59,2.68,1.76,3.47
				c1.17,0.8,2.61,1.19,4.32,1.19c1.33,0,2.62-0.2,3.88-0.6c1.26-0.4,2.68-1.11,4.29-2.12c1.6-1.01,3.6-2.46,6-4.36
				c2.17-1.72,3.35-2.59,3.54-2.59l0.06,0.03c0,0.11-1.25,1.18-3.74,3.2c-2.16,1.76-3.99,3.14-5.5,4.13
				c-1.51,0.99-2.98,1.74-4.43,2.24c-1.44,0.5-2.98,0.74-4.61,0.74C480.64,59.39,479.79,59.29,479.17,59.08z M479.69,49.02
				c0.98-0.28,2.06-0.71,3.22-1.29c1.16-0.58,2.18-1.3,3.06-2.16c1.07-1.07,1.6-2.03,1.6-2.9v-0.14c-0.04-0.11-0.22-0.17-0.53-0.17
				c-0.82,0-1.84,0.34-3.05,1.01c-1.21,0.67-2.39,1.55-3.54,2.61s-2.06,2.16-2.71,3.26c-0.06,0.07-0.08,0.12-0.08,0.14
				c0,0.04,0.03,0.06,0.08,0.06C478.05,49.44,478.7,49.3,479.69,49.02z"/>
		</g>
	</g>
	<g>
		<g>
			<path class="st0" d="M41.22,45.17v-3.09c0-3.96-0.63-6.09-2.06-7.44c-1.19-1.11-2.29-1.35-6.25-1.5
				c-0.71-0.08-1.03-0.24-1.03-0.79c0-0.55,0.4-0.87,1.27-0.87c0.24,0,0.95,0.08,1.9,0.16c3.56,0.4,6.41,0.56,8.78,0.56
				c2.61,0,7.6-0.32,10.52-0.63h0.55c0.55,0,0.87,0.32,0.87,0.79s-0.24,0.71-1.03,0.71c-1.82,0.08-3.24,0.63-4.27,1.5
				c-1.82,1.66-2.06,3.16-2.06,11.55v2.29c0,2.69-0.08,2.85-1.35,3.64c-2.06,1.27-5.14,2.69-8.39,3.96
				c-4.35,1.66-7.75,2.29-11.79,2.29c-15.67,0-27.06-11.4-27.06-26.98c0-8.39,2.93-15.03,9.02-20.41c5.3-4.75,11.95-7.44,18.52-7.44
				c4.59,0,8.94,1.19,13.69,3.64c2.14,1.19,2.77,1.43,3.8,1.43c0.87,0,1.27-0.32,1.98-1.5c0.24-0.55,0.55-0.79,0.87-0.79
				c0.48,0,0.63,0.4,0.71,1.34l0.71,12.58v0.32c0,0.71-0.24,1.11-0.79,1.11c-0.47,0-0.79-0.31-1.11-1.11
				c-0.87-2.06-2.85-5.38-4.43-7.52c-3.56-4.59-9.1-7.52-14.4-7.52c-10.84,0-19.7,11.39-19.7,25.24c0,6.73,2.22,13.69,5.93,18.51
				c3.32,4.27,8.94,7.28,13.69,7.28c4.43,0,8.47-2.06,12.74-6.57L41.22,45.17z"/>
			<path class="st0" d="M76.75,37.73c0,15.98,0.71,17.96,6.57,18.28c0.79,0,1.03,0.24,1.03,0.71c0,0.55-0.32,0.79-0.95,0.79
				c-0.24,0-0.24,0-4.43-0.32c-1.27-0.16-4.43-0.24-5.93-0.24c-2.69,0-4.43,0.08-9.65,0.56h-0.63c-0.63,0-0.95-0.24-0.95-0.79
				c0-0.48,0.24-0.71,1.03-0.71c5.86-0.32,6.57-2.29,6.57-18.28V24.05c0-15.98-0.71-17.96-6.57-18.28c-0.79,0-1.03-0.24-1.03-0.71
				c0-0.55,0.32-0.79,0.95-0.79c0.24,0,0.24,0,4.43,0.32c1.27,0.16,4.43,0.24,5.93,0.24c2.69,0,4.43-0.08,9.65-0.55h0.63
				c0.63,0,0.95,0.24,0.95,0.79c0,0.47-0.24,0.71-1.03,0.71c-5.86,0.32-6.57,2.29-6.57,18.28V37.73z"/>
			<path class="st0" d="M106.43,37.66c0,16.06,0.71,18.04,6.57,18.36c0.79,0,1.03,0.24,1.03,0.71c0,0.55-0.32,0.79-0.95,0.79
				c-0.24,0-0.24,0-4.43-0.32c-1.35-0.16-3.96-0.24-5.86-0.24c-3.24,0-3.88,0-9.65,0.56H92.5c-0.63,0-0.95-0.24-0.95-0.79
				c0-0.48,0.24-0.71,1.03-0.71c5.86-0.32,6.57-2.29,6.57-18.36V24.05c0-15.98-0.71-17.96-6.57-18.28c-0.79,0-1.03-0.24-1.03-0.71
				c0-0.55,0.32-0.79,0.95-0.79c0.24,0,0.24,0,4.43,0.32c1.19,0.08,2.45,0.16,3.96,0.16l21.29-0.47l9.97,0.08c0,0,0.32,0,0.79-0.08
				l1.66,9.89c0.08,0.48,0.16,0.87,0.16,1.11c0,0.4-0.32,0.79-0.63,0.79c-0.4,0-0.63-0.32-1.03-1.03c-2.29-5.3-8.78-8.94-15.83-8.94
				c-6.09,0-9.5,0.4-10.21,1.11c-0.55,0.56-0.63,0.87-0.63,2.69v17.65h3.72c4.98,0,6.49-0.48,8.15-2.45
				c1.27-1.58,1.74-2.69,2.37-5.62c0.16-0.71,0.4-1.03,0.79-1.03s0.63,0.32,0.63,0.95l-0.16,3.64c-0.16,2.45-0.24,5.38-0.24,7.28
				c0,3.09,0,3.32,0.4,6.96v0.47c0,0.55-0.32,0.95-0.79,0.95c-0.48,0-0.71-0.4-0.71-1.34c-0.16-1.9-1.58-5.14-2.77-6.17
				c-1.5-1.34-3.48-1.82-7.75-1.82h-3.64V37.66z"/>
			<path class="st0" d="M160.16,6.72c-1.58-0.16-2.29-0.16-3.24-0.16c-3.48,0-7.12,0.95-10.05,2.53c-3.32,1.9-5.22,4.12-6.65,7.83
				c-0.32,0.87-0.71,1.27-1.19,1.27c-0.4,0-0.71-0.4-0.71-0.87c0-0.24,0.08-0.55,0.16-0.95c1.11-5.14,1.35-7.68,1.35-11.79
				c1.58-0.16,1.98-0.16,4.27-0.16l20.18,0.32l19.54-0.32c1.82,0,2.45,0,3.96,0.16c0,3.56,0.4,6.88,1.42,11.55
				c0.16,0.4,0.24,0.79,0.24,1.03c0,0.47-0.4,0.95-0.87,0.95c-0.55,0-0.95-0.4-1.42-1.5c-2.53-6.09-9.1-10.05-16.7-10.05
				c-0.55,0-1.58,0.08-2.85,0.16v1.03v9.57v7.6v11.39c0,16.93,0.79,18.91,7.75,19.47c1.19,0.16,1.42,0.24,1.42,0.79
				c0,0.56-0.4,0.71-1.58,0.71c-0.47,0-0.55,0-1.19-0.08c-0.71,0-0.71,0-4.51-0.08c-1.27-0.08-3.01-0.08-5.3-0.16
				c-6.65,0.16-10.6,0.24-11.95,0.32h-0.24c-0.71,0-1.11-0.24-1.11-0.71c0-0.55,0.08-0.63,2.53-0.87c3.24-0.4,4.99-1.74,5.78-4.43
				c0.71-2.29,0.95-6.09,0.95-14.96V24.92v-8.78V7.58V6.72z"/>
			<path class="st0" d="M249.03,29.66c0,15.83-12.66,28.65-28.17,28.65c-14.88,0-25.95-11.4-25.95-26.75
				c0-15.11,12.82-28.09,27.85-28.09C237.24,3.47,249.03,15.18,249.03,29.66z M204.09,31.01c0,14.48,7.6,25.24,17.8,25.24
				c10.05,0,18.12-11.32,18.12-25.32c0-6.49-1.74-13.06-4.59-17.65c-3.01-4.67-8.39-7.91-13.14-7.91
				C212.55,5.37,204.09,17.32,204.09,31.01z"/>
			<path class="st0" d="M271.75,37.66c0,16.06,0.71,18.04,6.57,18.36c0.79,0,1.03,0.24,1.03,0.71c0,0.55-0.32,0.79-0.95,0.79
				c-0.24,0-0.24,0-4.43-0.32c-1.27-0.08-4.43-0.24-5.86-0.24c-2.69,0-4.43,0.08-9.65,0.56h-0.63c-0.63,0-0.95-0.24-0.95-0.79
				c0-0.48,0.24-0.71,1.03-0.71c5.86-0.32,6.57-2.29,6.57-18.36V24.12c0-16.06-0.71-18.04-6.57-18.36c-0.79,0-1.03-0.24-1.03-0.71
				c0-0.55,0.32-0.79,0.95-0.79c0.24,0,0.24,0,4.43,0.32c1.11,0.08,2.85,0.16,4.27,0.16c1.66,0,1.66,0,9.97-0.32
				c1.11-0.08,2.14-0.08,3.32-0.08c5.7,0,10.45,0.63,13.37,1.82c4.43,1.74,6.81,4.99,6.81,9.18c0,4.51-2.93,8.55-7.99,10.84
				c-2.29,1.03-4.03,1.66-7.44,2.61c9.97,1.58,13.77,5.93,15.43,17.72c1.19,6.01,3.64,8.47,9.26,9.42c0.87,0.16,1.27,0.4,1.27,0.87
				c0,0.47-0.32,0.71-1.03,0.71c-0.08,0-0.08,0-3.16-0.24c-0.71-0.08-1.58-0.08-2.61-0.08c-2.21,0-4.35,0.16-6.57,0.4
				c-2.77-1.66-4.03-4.83-5.22-13.37c-0.87-5.14-2.53-9.18-4.59-11.16c-1.82-1.74-3.88-2.29-8.62-2.29h-6.96V37.66z M275,28.79
				c10.6,0,17.09-4.83,17.09-12.66c0-4.35-2.29-7.75-6.33-9.1c-1.74-0.63-4.19-0.87-8.15-0.87c-4.9,0-5.86,0.55-5.86,3.56v19.07H275
				z"/>
			<path class="st0" d="M330.39,37.73c0,15.98,0.71,17.96,6.57,18.28c0.79,0,1.03,0.24,1.03,0.71c0,0.55-0.31,0.79-0.95,0.79
				c-0.24,0-0.24,0-4.43-0.32c-1.27-0.16-4.43-0.24-5.94-0.24c-2.69,0-4.43,0.08-9.65,0.56h-0.63c-0.63,0-0.95-0.24-0.95-0.79
				c0-0.48,0.24-0.71,1.03-0.71c5.86-0.32,6.57-2.29,6.57-18.28V24.05c0-15.98-0.71-17.96-6.57-18.28c-0.79,0-1.03-0.24-1.03-0.71
				c0-0.55,0.31-0.79,0.95-0.79c0.24,0,0.24,0,4.43,0.32c1.27,0.16,4.43,0.24,5.94,0.24c2.69,0,4.43-0.08,9.65-0.55h0.63
				c0.63,0,0.95,0.24,0.95,0.79c0,0.47-0.24,0.71-1.03,0.71c-5.86,0.32-6.57,2.29-6.57,18.28V37.73z"/>
			<path class="st0" d="M355.08,41.93c-1.74,4.27-2.69,7.6-2.69,9.1c0,2.53,2.14,4.51,5.06,4.83c1.11,0.16,1.58,0.4,1.58,0.95
				c0,0.4-0.4,0.71-0.95,0.71h-0.63c-2.45-0.24-3.48-0.32-5.22-0.32l-9.89,0.4c-0.63,0-0.95-0.24-0.95-0.71
				c0-0.4,0.32-0.63,1.11-0.71c3.48-0.79,5.78-3.32,8.15-9.18l13.45-32.44c1.74-4.03,2.77-6.73,4.11-10.44h2.61
				c1.11,4.51,2.22,8.23,4.83,15.82l8.15,22.95c3.25,8.94,5.22,11.79,9.26,12.98c0.95,0.16,1.27,0.48,1.27,0.87
				c0,0.47-0.4,0.71-1.11,0.71c-1.03,0-4.83-0.16-7.83-0.24c-2.69-0.16-3.72-0.16-6.25-0.16c-1.42,0-3.88,0.16-5.93,0.4h-0.47
				c-0.47,0-0.79-0.31-0.79-0.79c0-0.55,0.32-0.79,1.34-0.87c3.16-0.32,5.14-2.29,5.14-5.22c0-1.35-0.4-3.16-1.27-5.7l-2.69-7.75
				l-11.95-0.08c-2.29,0-3.48,0-5.46,0.08L355.08,41.93z M366.48,13.68l-8.47,21.21c1.58,0.4,3.09,0.55,6.33,0.55
				c3.4,0,6.73-0.24,9.34-0.55L366.48,13.68z"/>
		</g>
	</g>
</g>
</svg>
